<mxfile host="app.diagrams.net" agent="Mozilla/5.0 (Windows NT 10.0; Win64; x64; rv:141.0) Gecko/20100101 Firefox/141.0" version="27.1.6">
  <diagram name="Strona-1" id="QNSl3CrwNR8Y7I3661bO">
    <mxGraphModel dx="1426" dy="758" grid="1" gridSize="10" guides="1" tooltips="1" connect="1" arrows="1" fold="1" page="1" pageScale="1" pageWidth="827" pageHeight="1169" math="0" shadow="0">
      <root>
        <mxCell id="0" />
        <mxCell id="1" parent="0" />
        <mxCell id="GE8Pgm--XPJ9mxeSZvyY-7" style="edgeStyle=orthogonalEdgeStyle;rounded=0;orthogonalLoop=1;jettySize=auto;html=1;exitX=0.75;exitY=1;exitDx=0;exitDy=0;entryX=0.25;entryY=0;entryDx=0;entryDy=0;" edge="1" parent="1" source="GE8Pgm--XPJ9mxeSZvyY-1" target="GE8Pgm--XPJ9mxeSZvyY-6">
          <mxGeometry relative="1" as="geometry" />
        </mxCell>
        <mxCell id="GE8Pgm--XPJ9mxeSZvyY-1" value="Reinforce the Hives" style="rounded=0;whiteSpace=wrap;html=1;" vertex="1" parent="1">
          <mxGeometry x="354" width="120" height="60" as="geometry" />
        </mxCell>
        <mxCell id="GE8Pgm--XPJ9mxeSZvyY-11" style="edgeStyle=orthogonalEdgeStyle;rounded=0;orthogonalLoop=1;jettySize=auto;html=1;exitX=0.5;exitY=1;exitDx=0;exitDy=0;" edge="1" parent="1" source="GE8Pgm--XPJ9mxeSZvyY-2" target="GE8Pgm--XPJ9mxeSZvyY-10">
          <mxGeometry relative="1" as="geometry" />
        </mxCell>
        <mxCell id="GE8Pgm--XPJ9mxeSZvyY-2" value="Appease the Master" style="rounded=0;whiteSpace=wrap;html=1;" vertex="1" parent="1">
          <mxGeometry width="120" height="60" as="geometry" />
        </mxCell>
        <mxCell id="GE8Pgm--XPJ9mxeSZvyY-9" style="edgeStyle=orthogonalEdgeStyle;rounded=0;orthogonalLoop=1;jettySize=auto;html=1;exitX=0.5;exitY=1;exitDx=0;exitDy=0;entryX=0.75;entryY=0;entryDx=0;entryDy=0;" edge="1" parent="1" source="GE8Pgm--XPJ9mxeSZvyY-3" target="GE8Pgm--XPJ9mxeSZvyY-6">
          <mxGeometry relative="1" as="geometry" />
        </mxCell>
        <mxCell id="GE8Pgm--XPJ9mxeSZvyY-3" value="The Sustainance Farms" style="rounded=0;whiteSpace=wrap;html=1;" vertex="1" parent="1">
          <mxGeometry x="707" width="120" height="60" as="geometry" />
        </mxCell>
        <mxCell id="GE8Pgm--XPJ9mxeSZvyY-8" style="edgeStyle=orthogonalEdgeStyle;rounded=0;orthogonalLoop=1;jettySize=auto;html=1;exitX=0.5;exitY=1;exitDx=0;exitDy=0;" edge="1" parent="1" source="GE8Pgm--XPJ9mxeSZvyY-5" target="GE8Pgm--XPJ9mxeSZvyY-6">
          <mxGeometry relative="1" as="geometry" />
        </mxCell>
        <mxCell id="GE8Pgm--XPJ9mxeSZvyY-5" value="Establish a Breeding Chambers" style="rounded=0;whiteSpace=wrap;html=1;" vertex="1" parent="1">
          <mxGeometry x="530" width="120" height="60" as="geometry" />
        </mxCell>
        <mxCell id="GE8Pgm--XPJ9mxeSZvyY-18" style="edgeStyle=orthogonalEdgeStyle;rounded=0;orthogonalLoop=1;jettySize=auto;html=1;exitX=0.5;exitY=1;exitDx=0;exitDy=0;" edge="1" parent="1" source="GE8Pgm--XPJ9mxeSZvyY-6" target="GE8Pgm--XPJ9mxeSZvyY-14">
          <mxGeometry relative="1" as="geometry" />
        </mxCell>
        <mxCell id="GE8Pgm--XPJ9mxeSZvyY-19" style="edgeStyle=orthogonalEdgeStyle;rounded=0;orthogonalLoop=1;jettySize=auto;html=1;exitX=0.75;exitY=1;exitDx=0;exitDy=0;" edge="1" parent="1" source="GE8Pgm--XPJ9mxeSZvyY-6" target="GE8Pgm--XPJ9mxeSZvyY-15">
          <mxGeometry relative="1" as="geometry" />
        </mxCell>
        <mxCell id="GE8Pgm--XPJ9mxeSZvyY-20" style="edgeStyle=orthogonalEdgeStyle;rounded=0;orthogonalLoop=1;jettySize=auto;html=1;exitX=0.25;exitY=1;exitDx=0;exitDy=0;" edge="1" parent="1" source="GE8Pgm--XPJ9mxeSZvyY-6" target="GE8Pgm--XPJ9mxeSZvyY-16">
          <mxGeometry relative="1" as="geometry" />
        </mxCell>
        <mxCell id="GE8Pgm--XPJ9mxeSZvyY-6" value="Establishment of Prime Hive" style="rounded=0;whiteSpace=wrap;html=1;" vertex="1" parent="1">
          <mxGeometry x="530" y="120" width="120" height="60" as="geometry" />
        </mxCell>
        <mxCell id="GE8Pgm--XPJ9mxeSZvyY-13" style="edgeStyle=orthogonalEdgeStyle;rounded=0;orthogonalLoop=1;jettySize=auto;html=1;exitX=0.5;exitY=1;exitDx=0;exitDy=0;" edge="1" parent="1" source="GE8Pgm--XPJ9mxeSZvyY-10" target="GE8Pgm--XPJ9mxeSZvyY-12">
          <mxGeometry relative="1" as="geometry" />
        </mxCell>
        <mxCell id="GE8Pgm--XPJ9mxeSZvyY-40" style="edgeStyle=orthogonalEdgeStyle;rounded=0;orthogonalLoop=1;jettySize=auto;html=1;exitX=0.75;exitY=1;exitDx=0;exitDy=0;" edge="1" parent="1" source="GE8Pgm--XPJ9mxeSZvyY-10" target="GE8Pgm--XPJ9mxeSZvyY-39">
          <mxGeometry relative="1" as="geometry" />
        </mxCell>
        <mxCell id="GE8Pgm--XPJ9mxeSZvyY-10" value="Aspects of the Old Gods" style="rounded=0;whiteSpace=wrap;html=1;" vertex="1" parent="1">
          <mxGeometry y="120" width="120" height="60" as="geometry" />
        </mxCell>
        <mxCell id="GE8Pgm--XPJ9mxeSZvyY-12" value="Time of Silithid Ascension" style="rounded=0;whiteSpace=wrap;html=1;" vertex="1" parent="1">
          <mxGeometry y="240" width="120" height="60" as="geometry" />
        </mxCell>
        <mxCell id="GE8Pgm--XPJ9mxeSZvyY-21" style="edgeStyle=orthogonalEdgeStyle;rounded=0;orthogonalLoop=1;jettySize=auto;html=1;" edge="1" parent="1" source="GE8Pgm--XPJ9mxeSZvyY-14" target="GE8Pgm--XPJ9mxeSZvyY-17">
          <mxGeometry relative="1" as="geometry" />
        </mxCell>
        <mxCell id="GE8Pgm--XPJ9mxeSZvyY-14" value="Expand Territorial Reach" style="rounded=0;whiteSpace=wrap;html=1;" vertex="1" parent="1">
          <mxGeometry x="530" y="240" width="120" height="60" as="geometry" />
        </mxCell>
        <mxCell id="GE8Pgm--XPJ9mxeSZvyY-15" value="The Broodcourt&lt;br&gt;(own 3 lvl 2 advisors)" style="rounded=0;whiteSpace=wrap;html=1;" vertex="1" parent="1">
          <mxGeometry x="707" y="240" width="120" height="60" as="geometry" />
        </mxCell>
        <mxCell id="GE8Pgm--XPJ9mxeSZvyY-16" value="Treasure Hoard&lt;br&gt;(own any artifcact)" style="rounded=0;whiteSpace=wrap;html=1;" vertex="1" parent="1">
          <mxGeometry x="354" y="240" width="120" height="60" as="geometry" />
        </mxCell>
        <mxCell id="GE8Pgm--XPJ9mxeSZvyY-23" style="edgeStyle=orthogonalEdgeStyle;rounded=0;orthogonalLoop=1;jettySize=auto;html=1;exitX=0.5;exitY=1;exitDx=0;exitDy=0;" edge="1" parent="1" source="GE8Pgm--XPJ9mxeSZvyY-17" target="GE8Pgm--XPJ9mxeSZvyY-22">
          <mxGeometry relative="1" as="geometry" />
        </mxCell>
        <mxCell id="GE8Pgm--XPJ9mxeSZvyY-17" value="The Silithid Realm" style="rounded=0;whiteSpace=wrap;html=1;" vertex="1" parent="1">
          <mxGeometry x="530" y="360" width="120" height="60" as="geometry" />
        </mxCell>
        <mxCell id="GE8Pgm--XPJ9mxeSZvyY-22" value="The Legacy of the Silitihd" style="rounded=0;whiteSpace=wrap;html=1;" vertex="1" parent="1">
          <mxGeometry x="530" y="480" width="120" height="60" as="geometry" />
        </mxCell>
        <mxCell id="GE8Pgm--XPJ9mxeSZvyY-27" style="edgeStyle=orthogonalEdgeStyle;rounded=0;orthogonalLoop=1;jettySize=auto;html=1;exitX=0.5;exitY=1;exitDx=0;exitDy=0;" edge="1" parent="1" source="GE8Pgm--XPJ9mxeSZvyY-24" target="GE8Pgm--XPJ9mxeSZvyY-25">
          <mxGeometry relative="1" as="geometry" />
        </mxCell>
        <mxCell id="GE8Pgm--XPJ9mxeSZvyY-28" style="edgeStyle=orthogonalEdgeStyle;rounded=0;orthogonalLoop=1;jettySize=auto;html=1;exitX=0.75;exitY=1;exitDx=0;exitDy=0;" edge="1" parent="1" source="GE8Pgm--XPJ9mxeSZvyY-24" target="GE8Pgm--XPJ9mxeSZvyY-26">
          <mxGeometry relative="1" as="geometry" />
        </mxCell>
        <mxCell id="GE8Pgm--XPJ9mxeSZvyY-24" value="Rise of the Swarm" style="rounded=0;whiteSpace=wrap;html=1;" vertex="1" parent="1">
          <mxGeometry y="360" width="120" height="60" as="geometry" />
        </mxCell>
        <mxCell id="GE8Pgm--XPJ9mxeSZvyY-30" style="edgeStyle=orthogonalEdgeStyle;rounded=0;orthogonalLoop=1;jettySize=auto;html=1;exitX=0.5;exitY=1;exitDx=0;exitDy=0;" edge="1" parent="1" source="GE8Pgm--XPJ9mxeSZvyY-25" target="GE8Pgm--XPJ9mxeSZvyY-29">
          <mxGeometry relative="1" as="geometry" />
        </mxCell>
        <mxCell id="GE8Pgm--XPJ9mxeSZvyY-25" value="The Numberless" style="rounded=0;whiteSpace=wrap;html=1;" vertex="1" parent="1">
          <mxGeometry y="480" width="120" height="60" as="geometry" />
        </mxCell>
        <mxCell id="GE8Pgm--XPJ9mxeSZvyY-32" style="edgeStyle=orthogonalEdgeStyle;rounded=0;orthogonalLoop=1;jettySize=auto;html=1;exitX=0.5;exitY=1;exitDx=0;exitDy=0;" edge="1" parent="1" source="GE8Pgm--XPJ9mxeSZvyY-26" target="GE8Pgm--XPJ9mxeSZvyY-31">
          <mxGeometry relative="1" as="geometry" />
        </mxCell>
        <mxCell id="GE8Pgm--XPJ9mxeSZvyY-34" style="edgeStyle=orthogonalEdgeStyle;rounded=0;orthogonalLoop=1;jettySize=auto;html=1;exitX=0.75;exitY=1;exitDx=0;exitDy=0;" edge="1" parent="1" source="GE8Pgm--XPJ9mxeSZvyY-26" target="GE8Pgm--XPJ9mxeSZvyY-33">
          <mxGeometry relative="1" as="geometry" />
        </mxCell>
        <mxCell id="GE8Pgm--XPJ9mxeSZvyY-26" value="Territorial Expansion" style="rounded=0;whiteSpace=wrap;html=1;" vertex="1" parent="1">
          <mxGeometry x="170" y="480" width="120" height="60" as="geometry" />
        </mxCell>
        <mxCell id="GE8Pgm--XPJ9mxeSZvyY-38" style="edgeStyle=orthogonalEdgeStyle;rounded=0;orthogonalLoop=1;jettySize=auto;html=1;exitX=0.5;exitY=1;exitDx=0;exitDy=0;" edge="1" parent="1" source="GE8Pgm--XPJ9mxeSZvyY-29" target="GE8Pgm--XPJ9mxeSZvyY-37">
          <mxGeometry relative="1" as="geometry" />
        </mxCell>
        <mxCell id="GE8Pgm--XPJ9mxeSZvyY-29" value="The Scourge of the Dunes" style="rounded=0;whiteSpace=wrap;html=1;" vertex="1" parent="1">
          <mxGeometry y="600" width="120" height="60" as="geometry" />
        </mxCell>
        <mxCell id="GE8Pgm--XPJ9mxeSZvyY-31" value="Rivals to Kingdoms" style="rounded=0;whiteSpace=wrap;html=1;" vertex="1" parent="1">
          <mxGeometry x="170" y="600" width="120" height="60" as="geometry" />
        </mxCell>
        <mxCell id="GE8Pgm--XPJ9mxeSZvyY-36" style="edgeStyle=orthogonalEdgeStyle;rounded=0;orthogonalLoop=1;jettySize=auto;html=1;exitX=0.5;exitY=1;exitDx=0;exitDy=0;" edge="1" parent="1" source="GE8Pgm--XPJ9mxeSZvyY-33" target="GE8Pgm--XPJ9mxeSZvyY-35">
          <mxGeometry relative="1" as="geometry" />
        </mxCell>
        <mxCell id="GE8Pgm--XPJ9mxeSZvyY-33" value="Home Region United" style="rounded=0;whiteSpace=wrap;html=1;" vertex="1" parent="1">
          <mxGeometry x="354" y="600" width="120" height="60" as="geometry" />
        </mxCell>
        <mxCell id="GE8Pgm--XPJ9mxeSZvyY-35" value="Hiveground of the Silithid Swarm" style="rounded=0;whiteSpace=wrap;html=1;" vertex="1" parent="1">
          <mxGeometry x="354" y="720" width="120" height="60" as="geometry" />
        </mxCell>
        <mxCell id="GE8Pgm--XPJ9mxeSZvyY-37" value="The Endless Hunger" style="rounded=0;whiteSpace=wrap;html=1;" vertex="1" parent="1">
          <mxGeometry y="720" width="120" height="60" as="geometry" />
        </mxCell>
        <mxCell id="GE8Pgm--XPJ9mxeSZvyY-39" value="The Insect Magic" style="rounded=0;whiteSpace=wrap;html=1;" vertex="1" parent="1">
          <mxGeometry x="170" y="240" width="120" height="60" as="geometry" />
        </mxCell>
        <mxCell id="GE8Pgm--XPJ9mxeSZvyY-75" style="edgeStyle=orthogonalEdgeStyle;rounded=0;orthogonalLoop=1;jettySize=auto;html=1;exitX=0.5;exitY=1;exitDx=0;exitDy=0;entryX=0.5;entryY=0;entryDx=0;entryDy=0;" edge="1" parent="1" source="GE8Pgm--XPJ9mxeSZvyY-42" target="GE8Pgm--XPJ9mxeSZvyY-70">
          <mxGeometry relative="1" as="geometry" />
        </mxCell>
        <mxCell id="GE8Pgm--XPJ9mxeSZvyY-76" style="edgeStyle=orthogonalEdgeStyle;rounded=0;orthogonalLoop=1;jettySize=auto;html=1;exitX=0.75;exitY=1;exitDx=0;exitDy=0;" edge="1" parent="1" source="GE8Pgm--XPJ9mxeSZvyY-42" target="GE8Pgm--XPJ9mxeSZvyY-45">
          <mxGeometry relative="1" as="geometry" />
        </mxCell>
        <mxCell id="GE8Pgm--XPJ9mxeSZvyY-42" value="Establishment of Rushmaul Hive" style="rounded=0;whiteSpace=wrap;html=1;" vertex="1" parent="1">
          <mxGeometry y="840" width="120" height="60" as="geometry" />
        </mxCell>
        <mxCell id="GE8Pgm--XPJ9mxeSZvyY-72" style="edgeStyle=orthogonalEdgeStyle;rounded=0;orthogonalLoop=1;jettySize=auto;html=1;exitX=0.25;exitY=1;exitDx=0;exitDy=0;" edge="1" parent="1" source="GE8Pgm--XPJ9mxeSZvyY-43" target="GE8Pgm--XPJ9mxeSZvyY-48">
          <mxGeometry relative="1" as="geometry" />
        </mxCell>
        <mxCell id="GE8Pgm--XPJ9mxeSZvyY-73" style="edgeStyle=orthogonalEdgeStyle;rounded=0;orthogonalLoop=1;jettySize=auto;html=1;exitX=0.5;exitY=1;exitDx=0;exitDy=0;" edge="1" parent="1" source="GE8Pgm--XPJ9mxeSZvyY-43" target="GE8Pgm--XPJ9mxeSZvyY-71">
          <mxGeometry relative="1" as="geometry" />
        </mxCell>
        <mxCell id="GE8Pgm--XPJ9mxeSZvyY-43" value="Establishment of Hive Zukk&#39;ash" style="rounded=0;whiteSpace=wrap;html=1;" vertex="1" parent="1">
          <mxGeometry x="707" y="840" width="120" height="60" as="geometry" />
        </mxCell>
        <mxCell id="GE8Pgm--XPJ9mxeSZvyY-77" style="edgeStyle=orthogonalEdgeStyle;rounded=0;orthogonalLoop=1;jettySize=auto;html=1;exitX=0.5;exitY=1;exitDx=0;exitDy=0;entryX=0.25;entryY=0;entryDx=0;entryDy=0;" edge="1" parent="1" source="GE8Pgm--XPJ9mxeSZvyY-45" target="GE8Pgm--XPJ9mxeSZvyY-66">
          <mxGeometry relative="1" as="geometry" />
        </mxCell>
        <mxCell id="GE8Pgm--XPJ9mxeSZvyY-45" value="Infestation of Thousand Needless" style="rounded=0;whiteSpace=wrap;html=1;" vertex="1" parent="1">
          <mxGeometry x="170" y="960" width="120" height="60" as="geometry" />
        </mxCell>
        <mxCell id="GE8Pgm--XPJ9mxeSZvyY-78" style="edgeStyle=orthogonalEdgeStyle;rounded=0;orthogonalLoop=1;jettySize=auto;html=1;exitX=0.5;exitY=1;exitDx=0;exitDy=0;entryX=0.75;entryY=0;entryDx=0;entryDy=0;" edge="1" parent="1" source="GE8Pgm--XPJ9mxeSZvyY-48" target="GE8Pgm--XPJ9mxeSZvyY-66">
          <mxGeometry relative="1" as="geometry" />
        </mxCell>
        <mxCell id="GE8Pgm--XPJ9mxeSZvyY-48" value="Infestation of Feralas" style="rounded=0;whiteSpace=wrap;html=1;" vertex="1" parent="1">
          <mxGeometry x="540" y="960" width="120" height="60" as="geometry" />
        </mxCell>
        <mxCell id="GE8Pgm--XPJ9mxeSZvyY-65" style="edgeStyle=orthogonalEdgeStyle;rounded=0;orthogonalLoop=1;jettySize=auto;html=1;exitX=0.5;exitY=1;exitDx=0;exitDy=0;" edge="1" parent="1" source="GE8Pgm--XPJ9mxeSZvyY-63" target="GE8Pgm--XPJ9mxeSZvyY-64">
          <mxGeometry relative="1" as="geometry" />
        </mxCell>
        <mxCell id="GE8Pgm--XPJ9mxeSZvyY-63" value="The Field of Giants" style="rounded=0;whiteSpace=wrap;html=1;" vertex="1" parent="1">
          <mxGeometry x="354" y="840" width="120" height="60" as="geometry" />
        </mxCell>
        <mxCell id="GE8Pgm--XPJ9mxeSZvyY-69" style="edgeStyle=orthogonalEdgeStyle;rounded=0;orthogonalLoop=1;jettySize=auto;html=1;exitX=0.5;exitY=1;exitDx=0;exitDy=0;" edge="1" parent="1" source="GE8Pgm--XPJ9mxeSZvyY-64" target="GE8Pgm--XPJ9mxeSZvyY-66">
          <mxGeometry relative="1" as="geometry" />
        </mxCell>
        <mxCell id="GE8Pgm--XPJ9mxeSZvyY-64" value="Infestation of Barrens" style="rounded=0;whiteSpace=wrap;html=1;" vertex="1" parent="1">
          <mxGeometry x="354" y="960" width="120" height="60" as="geometry" />
        </mxCell>
        <mxCell id="GE8Pgm--XPJ9mxeSZvyY-80" style="edgeStyle=orthogonalEdgeStyle;rounded=0;orthogonalLoop=1;jettySize=auto;html=1;exitX=0.5;exitY=1;exitDx=0;exitDy=0;" edge="1" parent="1" source="GE8Pgm--XPJ9mxeSZvyY-66" target="GE8Pgm--XPJ9mxeSZvyY-79">
          <mxGeometry relative="1" as="geometry" />
        </mxCell>
        <mxCell id="GE8Pgm--XPJ9mxeSZvyY-66" value="Empire of the Shifting Sands" style="rounded=0;whiteSpace=wrap;html=1;" vertex="1" parent="1">
          <mxGeometry x="354" y="1080" width="120" height="60" as="geometry" />
        </mxCell>
        <mxCell id="GE8Pgm--XPJ9mxeSZvyY-70" value="Great Hive of Rushmaul" style="rounded=0;whiteSpace=wrap;html=1;" vertex="1" parent="1">
          <mxGeometry y="960" width="120" height="60" as="geometry" />
        </mxCell>
        <mxCell id="GE8Pgm--XPJ9mxeSZvyY-71" value="Great Hive of Zukk&#39;ash" style="rounded=0;whiteSpace=wrap;html=1;" vertex="1" parent="1">
          <mxGeometry x="707" y="960" width="120" height="60" as="geometry" />
        </mxCell>
        <mxCell id="GE8Pgm--XPJ9mxeSZvyY-79" value="The Time of C&#39;thun" style="rounded=0;whiteSpace=wrap;html=1;" vertex="1" parent="1">
          <mxGeometry x="354" y="1200" width="120" height="60" as="geometry" />
        </mxCell>
        <mxCell id="GE8Pgm--XPJ9mxeSZvyY-84" style="edgeStyle=orthogonalEdgeStyle;rounded=0;orthogonalLoop=1;jettySize=auto;html=1;" edge="1" parent="1" source="GE8Pgm--XPJ9mxeSZvyY-81" target="GE8Pgm--XPJ9mxeSZvyY-82">
          <mxGeometry relative="1" as="geometry" />
        </mxCell>
        <mxCell id="GE8Pgm--XPJ9mxeSZvyY-85" style="edgeStyle=orthogonalEdgeStyle;rounded=0;orthogonalLoop=1;jettySize=auto;html=1;exitX=0.25;exitY=1;exitDx=0;exitDy=0;" edge="1" parent="1" source="GE8Pgm--XPJ9mxeSZvyY-81" target="GE8Pgm--XPJ9mxeSZvyY-83">
          <mxGeometry relative="1" as="geometry" />
        </mxCell>
        <mxCell id="GE8Pgm--XPJ9mxeSZvyY-81" value="Region Specific Mission" style="rounded=0;whiteSpace=wrap;html=1;" vertex="1" parent="1">
          <mxGeometry x="707" y="600" width="120" height="60" as="geometry" />
        </mxCell>
        <mxCell id="GE8Pgm--XPJ9mxeSZvyY-82" value="&#xa;Region Specific Mission&#xa;&#xa;" style="rounded=0;whiteSpace=wrap;html=1;" vertex="1" parent="1">
          <mxGeometry x="707" y="720" width="120" height="60" as="geometry" />
        </mxCell>
        <mxCell id="GE8Pgm--XPJ9mxeSZvyY-83" value="&#xa;Region Specific Mission&#xa;&#xa;" style="rounded=0;whiteSpace=wrap;html=1;" vertex="1" parent="1">
          <mxGeometry x="530" y="720" width="120" height="60" as="geometry" />
        </mxCell>
      </root>
    </mxGraphModel>
  </diagram>
</mxfile>
